HIERARCHY
ROOT Hips
{
 OFFSET 0.000000 0.000000 0.000000
 CHANNELS 6 Xposition Yposition Zposition Yrotation Xrotation Zrotation
 JOINT Chest
 {
  OFFSET 0.000000 9.585900 0.002600
  CHANNELS 3 Yrotation Xrotation Zrotation
  JOINT Chest2
  {
   OFFSET 0.000000 9.601200 -0.005300
   CHANNELS 3 Yrotation Xrotation Zrotation
   JOINT Chest3
   {
    OFFSET 0.000000 9.561800 0.000000
    CHANNELS 3 Yrotation Xrotation Zrotation
    JOINT Chest4
    {
     OFFSET 0.000000 9.552100 0.000000
     CHANNELS 3 Yrotation Xrotation Zrotation
     JOINT Neck
     {
      OFFSET 0.000000 14.453000 0.000000
      CHANNELS 3 Yrotation Xrotation Zrotation
      JOINT Head
      {
       OFFSET 0.000000 8.936500 -0.011300
       CHANNELS 3 Yrotation Xrotation Zrotation
       End Site
       {
        OFFSET 0.000000 17.073600 -0.006000
       }
      }
     }
     JOINT RightCollar
     {
      OFFSET -2.921100 9.558500 0.000000
      CHANNELS 3 Yrotation Xrotation Zrotation
      JOINT RightShoulder
      {
       OFFSET -13.519700 0.000000 0.000000
       CHANNELS 3 Yrotation Xrotation Zrotation
       JOINT RightElbow
       {
        OFFSET 0.000000 -29.696600 0.000000
        CHANNELS 3 Yrotation Xrotation Zrotation
        JOINT RightWrist
        {
         OFFSET 0.000000 -24.004700 0.000000
         CHANNELS 3 Yrotation Xrotation Zrotation
         End Site
         {
          OFFSET 0.000000 -17.728500 0.000000
         }
        }
       }
      }
     }
     JOINT LeftCollar
     {
      OFFSET 2.921100 9.558500 0.000000
      CHANNELS 3 Yrotation Xrotation Zrotation
      JOINT LeftShoulder
      {
       OFFSET 13.519700 0.000000 0.000000
       CHANNELS 3 Yrotation Xrotation Zrotation
       JOINT LeftElbow
       {
        OFFSET 0.000000 -29.696600 0.000000
        CHANNELS 3 Yrotation Xrotation Zrotation
        JOINT LeftWrist
        {
         OFFSET 0.000000 -24.004700 0.000000
         CHANNELS 3 Yrotation Xrotation Zrotation
         End Site
         {
          OFFSET 0.000000 -17.728500 0.000000
         }
        }
       }
      }
     }
    }
   }
  }
 }
 JOINT RightHip
 {
  OFFSET -7.771700 -0.012900 -0.001300
  CHANNELS 3 Yrotation Xrotation Zrotation
  JOINT RightKnee
  {
   OFFSET 0.000000 -40.869800 0.001200
   CHANNELS 3 Yrotation Xrotation Zrotation
   JOINT RightAnkle
   {
    OFFSET 0.000000 -39.717900 0.002100
    CHANNELS 3 Yrotation Xrotation Zrotation
    JOINT RightToe
    {
     OFFSET 0.000000 -4.965400 11.033500
     CHANNELS 3 Yrotation Xrotation Zrotation
     End Site
     {
      OFFSET 0.000000 -1.423100 5.872300
     }
    }
   }
  }
 }
 JOINT LeftHip
 {
  OFFSET 7.771700 -0.012900 -0.001300
  CHANNELS 3 Yrotation Xrotation Zrotation
  JOINT LeftKnee
  {
   OFFSET 0.000000 -40.869800 0.001200
   CHANNELS 3 Yrotation Xrotation Zrotation
   JOINT LeftAnkle
   {
    OFFSET 0.000000 -39.717900 0.002100
    CHANNELS 3 Yrotation Xrotation Zrotation
    JOINT LeftToe
    {
     OFFSET 0.000000 -4.965400 11.033500
     CHANNELS 3 Yrotation Xrotation Zrotation
     End Site
     {
      OFFSET 0.000000 -1.423100 5.872300
     }
    }
   }
  }
 }
}
MOTION
Frames: 11
Frame Time: 0.008333
0.000000 85.388000 0.000000 0.000000 -5.767877 0.000000 0.000000 11.653817 0.000000 0.000000 -5.885947 0.000000 0.000000 -0.000000 0.000000 0.000000 -0.000000 0.000000 0.000000 12.528835 0.000000 0.000000 0.711642 0.000000 0.000000 -0.000000 0.000000 0.000000 0.000000 -90.000000 0.000000 -2.309062 0.000000 0.000000 2.309062 0.000000 0.000000 -0.000000 0.000000 0.000000 -0.000000 90.000000 0.000000 -2.309062 0.000000 0.000000 2.309062 0.000000 0.000000 8.520406 0.000000 0.000000 1.905762 0.000000 -0.000000 -4.658285 0.000000 0.000000 -0.000000 0.000000 0.000000 8.520406 0.000000 0.000000 1.905762 0.000000 -0.000000 -4.658285 0.000000 0.000000 -0.000000 0.000000
-125.199409 58.373842 103.110334 176.286667 -23.023711 -1.113649 3.585191 21.015166 3.404788 0.323874 2.735567 0.308285 0.581050 4.537835 0.533315 2.610247 17.868343 2.439546 -1.111473 10.229654 -1.995479 -1.248002 -16.799600 -3.360285 -1.410020 3.095724 0.233465 -9.616193 -12.269860 0.707818 -99.006498 -35.939459 86.821888 -17.368518 -6.435164 -7.465548 -1.825639 3.123145 1.190327 15.069063 -6.011567 -11.485295 76.562214 -23.000670 -81.549149 20.416403 -13.976373 6.289276 6.621910 -51.524765 -3.076402 -11.664447 67.270927 -14.301783 7.773341 22.841146 5.479345 -0.624244 -16.529881 3.210104 -3.923590 -49.584281 -0.635720 25.644339 66.061336 26.220970 -14.903475 4.165085 -2.216562 -0.197016 -0.127683 -0.070666
-125.192780 58.369200 103.112360 176.265684 -23.077610 -1.116234 3.533022 20.953313 3.362517 0.335063 2.749165 0.312052 0.577308 4.522866 0.527827 2.597220 17.845136 2.419882 -1.080487 10.299162 -1.976896 -1.197684 -16.670067 -3.337473 -1.352592 3.054304 0.275873 -9.631422 -12.440372 0.614261 -99.635568 -35.885212 86.896961 -17.351533 -6.424332 -7.460253 -1.960443 3.041238 1.048960 15.444140 -6.208424 -11.090748 77.353433 -22.936093 -81.957209 20.389724 -14.058572 6.583330 6.607302 -51.474376 -3.017644 -11.678640 67.263081 -14.338221 7.770165 22.832945 5.476742 -0.604961 -16.517108 3.215490 -3.913247 -49.533807 -0.621952 25.648411 66.067550 26.227725 -14.893144 4.158082 -2.215496 -0.204734 -0.130615 -0.077409
-125.189927 58.363303 103.115238 176.272397 -23.135953 -1.101736 3.445204 20.895202 3.297114 0.345799 2.763206 0.314511 0.572716 4.508061 0.522515 2.580868 17.822259 2.400570 -1.025805 10.409133 -1.960197 -1.172979 -16.574207 -3.308600 -1.293798 3.024736 0.319966 -9.673984 -12.597296 0.510847 -100.323921 -35.815670 87.126737 -17.313646 -6.387099 -7.422510 -2.076639 2.948273 0.918667 15.852598 -6.396291 -10.722238 78.192623 -22.836429 -82.431609 20.344279 -14.182278 6.840021 6.623499 -51.423425 -3.002905 -11.749464 67.259861 -14.426178 7.721910 22.853217 5.430178 -0.564562 -16.528143 3.257460 -3.903487 -49.483222 -0.652496 25.664378 66.075250 26.255657 -14.915208 4.132626 -2.244479 -0.179410 -0.116677 -0.067008
-125.182336 58.356629 103.119466 176.243915 -23.198437 -1.097648 3.415737 20.861658 3.273422 0.369992 2.807103 0.318999 0.540702 4.440851 0.511191 2.563829 17.800464 2.383318 -1.007767 10.459309 -1.942459 -1.111565 -16.426145 -3.289906 -1.240069 2.998504 0.367046 -9.751632 -12.732720 0.396065 -101.060601 -35.774600 87.527760 -17.257156 -6.328105 -7.344732 -2.167721 2.849228 0.807788 16.302072 -6.572257 -10.379223 79.031682 -22.748598 -82.969495 20.279614 -14.315470 7.006639 6.657436 -51.370881 -2.978093 -11.746110 67.260073 -14.426174 7.705789 22.858730 5.431052 -0.567947 -16.524492 3.267889 -3.902202 -49.430210 -0.640831 25.676167 66.085099 26.282805 -14.918679 4.132088 -2.261042 -0.164531 -0.124063 -0.076021
-125.173405 58.349676 103.124311 176.214625 -23.265056 -1.098285 3.393062 20.834776 3.260738 0.390435 2.848134 0.320365 0.513599 4.379041 0.504635 2.549016 17.780875 2.370116 -0.993403 10.501837 -1.924984 -1.054868 -16.297994 -3.284342 -1.202023 2.966254 0.414674 -9.873075 -12.845373 0.270617 -101.823780 -35.787152 88.098919 -17.191579 -6.253231 -7.217662 -2.232756 2.742123 0.722661 16.795233 -6.733542 -10.052008 79.824326 -22.720777 -83.567543 20.212063 -14.433200 7.091079 6.676430 -51.312834 -2.945887 -11.718086 67.258159 -14.401896 7.705264 22.860394 5.441126 -0.587382 -16.516534 3.272589 -3.912758 -49.376515 -0.616089 25.696046 66.101186 26.317276 -14.922404 4.129841 -2.286106 -0.154220 -0.134983 -0.079668
-125.159638 58.343093 103.129522 176.184211 -23.336669 -1.125597 3.388743 20.815983 3.282741 0.380340 2.833656 0.315955 0.518575 4.375466 0.504925 2.537931 17.763293 2.362031 -0.972675 10.552982 -1.911540 -1.016114 -16.212610 -3.296685 -1.184680 2.923725 0.462640 -10.046438 -12.932575 0.134169 -102.597359 -35.857872 88.843918 -17.128763 -6.167271 -7.037567 -2.277693 2.627206 0.668713 17.338897 -6.876193 -9.726443 80.532632 -22.766814 -84.228130 20.154722 -14.522019 7.126020 6.665063 -51.252473 -2.871215 -11.694464 67.254593 -14.378356 7.711278 22.865711 5.456466 -0.594840 -16.512491 3.267880 -3.963822 -49.315975 -0.553187 25.676500 66.123111 26.353156 -14.941515 4.109969 -2.372888 -0.108870 -0.137209 -0.059073
-125.151564 58.335486 103.137913 176.156291 -23.387701 -1.120485 3.395462 20.823623 3.281220 0.356562 2.781427 0.310372 0.523245 4.370324 0.505958 2.531436 17.747432 2.358607 -0.957454 10.594380 -1.901096 -0.991590 -16.115207 -3.276354 -1.187940 2.869040 0.512826 -10.268876 -12.991894 -0.010377 -103.377285 -35.991486 89.760488 -17.079726 -6.074921 -6.796271 -2.310519 2.509839 0.649045 17.939910 -6.994758 -9.390630 81.133899 -22.862926 -84.956623 20.103214 -14.577382 7.121405 6.717893 -51.214444 -2.865933 -11.703983 67.252269 -14.379557 7.701362 22.883116 5.467857 -0.585591 -16.515602 3.265375 -4.035706 -49.282863 -0.510291 25.772015 66.131976 26.440180 -14.919256 4.117068 -2.400008 -0.118996 -0.152754 -0.068840
-125.143772 58.329470 103.144651 176.125085 -23.450513 -1.111964 3.381559 20.784841 3.268021 0.356606 2.792515 0.309943 0.530848 4.367260 0.506692 2.542951 17.786257 2.360652 -0.956387 10.575334 -1.890778 -0.978538 -16.042524 -3.258992 -1.218862 2.747077 0.566281 -10.530604 -13.024013 -0.156042 -104.168350 -36.189095 90.830334 -17.046598 -5.978823 -6.492347 -2.347817 2.341132 0.665452 18.593496 -7.084302 -9.037160 81.627252 -22.979280 -85.756310 20.047952 -14.611150 7.074897 6.769761 -51.164981 -2.861478 -11.719759 67.251141 -14.386081 7.699406 22.901902 5.480020 -0.587218 -16.521618 3.263282 -4.030340 -49.224567 -0.503389 25.773240 66.135954 26.462328 -14.927576 4.106209 -2.427844 -0.105799 -0.147640 -0.068419
-125.133615 58.325090 103.150409 176.089836 -23.520780 -1.116678 3.383144 20.757305 3.274227 0.342750 2.743211 0.307978 0.551140 4.424049 0.509617 2.537476 17.745475 2.362184 -0.941022 10.633395 -1.889926 -0.970080 -15.981050 -3.242784 -1.244384 2.694319 0.610395 -10.828309 -13.033762 -0.296143 -104.971956 -36.436539 92.031231 -17.022629 -5.876182 -6.148045 -2.363206 2.258343 0.697436 19.286021 -7.142978 -8.662861 82.028374 -23.104033 -86.625849 19.982921 -14.633604 6.991097 6.803831 -51.112320 -2.821998 -11.740204 67.252853 -14.400226 7.678816 22.932137 5.477199 -0.578809 -16.538195 3.270281 -4.037777 -49.156586 -0.476507 25.763894 66.140815 26.486195 -14.940916 4.091502 -2.472208 -0.080089 -0.142084 -0.063386
-125.124646 58.320489 103.159306 176.067970 -23.568904 -1.123055 3.376474 20.730435 3.279822 0.336380 2.716746 0.307482 0.557534 4.436289 0.510951 2.535378 17.703618 2.366861 -0.926833 10.691261 -1.897166 -0.958190 -15.925544 -3.237728 -1.276111 2.637550 0.645153 -11.159421 -13.030279 -0.433768 -105.786534 -36.706604 93.343149 -17.004928 -5.775337 -5.807847 -2.370112 2.183162 0.739594 20.008065 -7.170632 -8.263185 82.351657 -23.230794 -87.560406 19.905058 -14.645084 6.887361 6.797485 -51.076840 -2.772266 -11.723401 67.249443 -14.391663 7.662089 22.950691 5.465348 -0.580974 -16.541758 3.283438 -4.134009 -49.115573 -0.420206 25.850625 66.137646 26.572638 -14.916232 4.081073 -2.518903 -0.084545 -0.138446 -0.062300
